<mxfile host="65bd71144e">
    <diagram id="xi7mtnJ3OGGCbmgn2JCF" name="Page-1">
        <mxGraphModel dx="1120" dy="557" grid="1" gridSize="10" guides="1" tooltips="1" connect="1" arrows="1" fold="1" page="1" pageScale="1" pageWidth="850" pageHeight="1100" math="0" shadow="0">
            <root>
                <mxCell id="0"/>
                <mxCell id="1" parent="0"/>
                <mxCell id="2" value="End to End Process Flow" style="text;html=1;strokeColor=none;fillColor=none;align=center;verticalAlign=middle;whiteSpace=wrap;rounded=0;fontSize=35;" parent="1" vertex="1">
                    <mxGeometry x="215" y="20" width="420" height="70" as="geometry"/>
                </mxCell>
                <mxCell id="3" value="MessageBus Service" style="rounded=0;whiteSpace=wrap;html=1;fontSize=20;fillColor=#6a00ff;fontColor=#ffffff;strokeColor=#3700CC;" parent="1" vertex="1">
                    <mxGeometry x="260" y="120" width="320" height="80" as="geometry"/>
                </mxCell>
                <mxCell id="4" value="" style="rounded=0;whiteSpace=wrap;html=1;fontSize=20;fillColor=#6a00ff;fontColor=#ffffff;strokeColor=#3700CC;" parent="1" vertex="1">
                    <mxGeometry x="90" y="260" width="660" height="250" as="geometry"/>
                </mxCell>
                <mxCell id="13" value="Received Approval" style="edgeStyle=none;html=1;entryX=0.5;entryY=1;entryDx=0;entryDy=0;strokeWidth=3;fontSize=15;fillColor=#60a917;strokeColor=#2D7600;" parent="1" source="6" target="8" edge="1">
                    <mxGeometry x="-0.4348" y="-10" relative="1" as="geometry">
                        <Array as="points">
                            <mxPoint x="695" y="620"/>
                        </Array>
                        <mxPoint as="offset"/>
                    </mxGeometry>
                </mxCell>
                <mxCell id="6" value="MessageBus Service" style="rounded=0;whiteSpace=wrap;html=1;fontSize=20;fillColor=#6a00ff;fontColor=#ffffff;strokeColor=#3700CC;" parent="1" vertex="1">
                    <mxGeometry x="265" y="580" width="320" height="80" as="geometry"/>
                </mxCell>
                <mxCell id="10" value="Received Approval" style="edgeStyle=none;html=1;entryX=0.25;entryY=1;entryDx=0;entryDy=0;strokeWidth=3;fontSize=15;exitX=1;exitY=0.5;exitDx=0;exitDy=0;fillColor=#60a917;strokeColor=#2D7600;" parent="1" source="7" target="3" edge="1">
                    <mxGeometry x="-0.4615" y="10" relative="1" as="geometry">
                        <Array as="points">
                            <mxPoint x="340" y="320"/>
                        </Array>
                        <mxPoint x="-1" as="offset"/>
                    </mxGeometry>
                </mxCell>
                <mxCell id="15" style="edgeStyle=none;html=1;entryX=0;entryY=0.5;entryDx=0;entryDy=0;strokeWidth=3;fontSize=20;" parent="1" source="7" target="14" edge="1">
                    <mxGeometry relative="1" as="geometry">
                        <Array as="points">
                            <mxPoint x="150" y="400"/>
                            <mxPoint x="200" y="400"/>
                            <mxPoint x="200" y="380"/>
                        </Array>
                    </mxGeometry>
                </mxCell>
                <mxCell id="7" value="Push&lt;br&gt;Socket" style="ellipse;whiteSpace=wrap;html=1;aspect=fixed;fontSize=20;fillColor=#e3c800;fontColor=#000000;strokeColor=#B09500;" parent="1" vertex="1">
                    <mxGeometry x="100" y="270" width="100" height="100" as="geometry"/>
                </mxCell>
                <mxCell id="11" value="Pulled Message" style="edgeStyle=none;html=1;entryX=0.75;entryY=0;entryDx=0;entryDy=0;strokeWidth=3;fontSize=15;fillColor=#008a00;strokeColor=#005700;" parent="1" source="8" target="6" edge="1">
                    <mxGeometry x="-0.4815" y="-15" relative="1" as="geometry">
                        <Array as="points">
                            <mxPoint x="505" y="455"/>
                        </Array>
                        <mxPoint x="-1" as="offset"/>
                    </mxGeometry>
                </mxCell>
                <mxCell id="8" value="Pull&lt;br&gt;Socket" style="ellipse;whiteSpace=wrap;html=1;aspect=fixed;fontSize=20;fillColor=#e3c800;fontColor=#000000;strokeColor=#B09500;" parent="1" vertex="1">
                    <mxGeometry x="650" y="410" width="90" height="90" as="geometry"/>
                </mxCell>
                <mxCell id="9" value="Pushed Message" style="edgeStyle=none;html=1;entryX=0.5;entryY=0;entryDx=0;entryDy=0;fontSize=15;strokeWidth=3;fillColor=#008a00;strokeColor=#005700;" parent="1" source="3" target="7" edge="1">
                    <mxGeometry x="-0.4545" y="-10" relative="1" as="geometry">
                        <Array as="points">
                            <mxPoint x="150" y="160"/>
                        </Array>
                        <mxPoint as="offset"/>
                    </mxGeometry>
                </mxCell>
                <mxCell id="16" style="edgeStyle=none;html=1;entryX=0.5;entryY=0;entryDx=0;entryDy=0;strokeWidth=3;fontSize=20;" parent="1" source="14" target="8" edge="1">
                    <mxGeometry relative="1" as="geometry">
                        <Array as="points">
                            <mxPoint x="695" y="380"/>
                        </Array>
                    </mxGeometry>
                </mxCell>
                <mxCell id="14" value="Mesasge Queue" style="rounded=0;whiteSpace=wrap;html=1;fontSize=20;fillColor=#008a00;fontColor=#ffffff;strokeColor=#005700;" parent="1" vertex="1">
                    <mxGeometry x="250" y="350" width="360" height="60" as="geometry"/>
                </mxCell>
                <mxCell id="19" style="edgeStyle=none;html=1;entryX=0.5;entryY=0;entryDx=0;entryDy=0;strokeWidth=3;fontSize=15;" parent="1" source="18" target="14" edge="1">
                    <mxGeometry relative="1" as="geometry">
                        <Array as="points">
                            <mxPoint x="430" y="310"/>
                        </Array>
                    </mxGeometry>
                </mxCell>
                <mxCell id="18" value="Garbage&lt;br style=&quot;font-size: 15px;&quot;&gt;Collector" style="rhombus;whiteSpace=wrap;html=1;fontSize=15;fillColor=#0050ef;fontColor=#ffffff;strokeColor=#001DBC;" parent="1" vertex="1">
                    <mxGeometry x="635" y="260" width="115" height="100" as="geometry"/>
                </mxCell>
            </root>
        </mxGraphModel>
    </diagram>
</mxfile>